<svg xmlns="http://www.w3.org/2000/svg" width="194" height="194" viewBox="0 0 194 194">
  <path id="_ionicons_svg_md-locate" d="M129,94.357A34.643,34.643,0,1,0,163.642,129,34.744,34.744,0,0,0,129,94.357Zm82.683,25.4A83.458,83.458,0,0,0,138.238,46.32V32H119.762V46.319a83.457,83.457,0,0,0-73.445,73.442H32v18.476H46.317a83.461,83.461,0,0,0,73.445,73.445V226h18.476V211.683a83.462,83.462,0,0,0,73.445-73.445H226V119.762ZM129,193.667A64.667,64.667,0,1,1,193.666,129,64.855,64.855,0,0,1,129,193.667Z" transform="translate(-32 -32)" fill="#fff"/>
</svg>
